# xmcd
#
# Track frame offsets: 
#        150
#        24224
#        30562
#        32963
#        45982
#        46816
#        51222
#        53555
#        54235
#        65755
#        73879
#        81744
#        95753
#        104299
#        109956
#        118625
#        134042
#        143974
#        160388
#
# Disc length: 2309 seconds
#
# Revision: 0
# Processed by: cddbd v1.5.2PL0 Copyright (c) Steve Scherf et al.
# Submitted via: ExactAudioCopy v1.1
#
DISCID=16090313
DTITLE=Frank Ocean - Endless
DYEAR=2016
DGENRE=Soul
TTITLE0=At Your Best (You Are Love)
TTITLE1=Alabama
TTITLE2=Mine
TTITLE3=UNITY
TTITLE4=A Certain Way
TTITLE5=Comme Des Garçons
TTITLE6=Xenons
TTITLE7=Honey Baby
TTITLE8=Wither
TTITLE9=Hublots
TTITLE10=In Here Somewhere
TTITLE11=Slide On Me
TTITLE12=Sideways
TTITLE13=Florida
TTITLE14=Impietas - Deathwish (ASR)
TTITLE15=Rushes
TTITLE16=Rushes To
TTITLE17=Higgs
TTITLE18=Mitsubishi Sony
EXTD=
EXTT0=
EXTT1=
EXTT2=
EXTT3=
EXTT4=
EXTT5=
EXTT6=
EXTT7=
EXTT8=
EXTT9=
EXTT10=
EXTT11=
EXTT12=
EXTT13=
EXTT14=
EXTT15=
EXTT16=
EXTT17=
EXTT18=
PLAYORDER=
